<svg width="23" height="27" viewBox="0 0 23 27" fill="none" xmlns="http://www.w3.org/2000/svg">
<path d="M22.7222 10.4419L19.1158 21.6248C18.7654 21.2531 18.3499 20.8095 17.9003 20.3191C17.77 20.1754 17.6367 20.0286 17.5095 19.8787C16.4304 18.6354 15.4723 17.1829 14.9699 15.6179C14.666 14.662 14.6195 13.6562 14.9885 12.7128C15.342 11.8069 15.9188 10.9854 16.601 10.2982C13.8381 13.0846 9.35419 13.0846 6.59129 10.2982C9.35419 13.0846 9.35419 17.5983 6.59129 20.3816C7.23008 19.7381 7.99289 19.2196 8.82703 18.8635C10.1263 18.3074 11.3729 18.1606 12.7125 18.6854C14.2288 19.2758 15.6335 20.3098 16.818 21.4124C16.8646 21.4562 16.9111 21.4999 16.9576 21.5405C17.6367 22.1715 18.2228 22.715 18.6383 23.1024L17.5033 26.6259C17.4413 26.8196 17.2615 26.9508 17.0599 26.9508H0.467023C0.150731 26.9508 -0.0756364 26.6384 0.0235923 26.3354L0.191043 25.82L8.33399 0.570869L8.41152 0.327219C8.51074 0.0210924 8.87355 -0.0976126 9.13093 0.0898116L22.5547 9.91396C22.719 10.0327 22.7873 10.2451 22.7222 10.4419Z" fill="#6045F4"/>
</svg>
