<svg width="101" height="28" viewBox="0 0 101 28" fill="none" xmlns="http://www.w3.org/2000/svg">
<g clip-path="url(#clip0_436_24388)">
<path d="M21.6084 9.49858L9.40633 0.570947L8.74584 0.0867671C8.50087 -0.0912858 8.15357 0.0211673 8.05745 0.314798L0.0230235 25.2297C-0.0731043 25.5202 0.143957 25.8201 0.447845 25.8201H16.343C16.5353 25.8201 16.7089 25.6951 16.7679 25.5108L17.8563 22.1341L18.0299 21.5406C17.9834 21.5 17.9369 21.4562 17.8904 21.4125C16.7058 20.3098 15.3011 19.2759 13.7848 18.6855C12.4452 18.1607 11.1986 18.3075 9.89937 18.8635C9.06523 19.2196 8.30241 19.7382 7.66363 20.3817C10.4265 17.5984 10.4265 13.0846 7.66363 10.2983C10.4265 13.0846 14.9104 13.0846 17.6733 10.2983C16.9911 10.9855 16.4144 11.807 16.0609 12.7129C15.6919 13.6563 15.7384 14.6621 16.0423 15.618C16.5446 17.183 17.5028 18.6355 18.5819 19.8788L21.7665 10.0046C21.8285 9.8172 21.7634 9.61416 21.6084 9.49858ZM6.31474 19.5258C6.50699 19.3321 6.68375 19.1259 6.84809 18.9135L6.93182 18.9854C6.71476 19.154 6.50699 19.3321 6.31474 19.5258Z" fill="#4D37D0"/>
<path d="M23.8937 21.1782C23.8937 17.4422 26.1853 14.9058 29.7358 14.9058C32.446 14.9058 34.4244 16.4926 34.8771 19.0478H33.2677C32.7964 17.3391 31.5002 16.3177 29.6645 16.3177C27.0938 16.3177 25.4473 18.3263 25.4473 21.1813C25.4473 24.0364 27.0225 26.045 29.5932 26.045C31.4816 26.045 32.7933 25.0392 33.2491 23.3149H34.8585C34.4027 25.8701 32.3747 27.4569 29.6118 27.4569C26.0954 27.4569 23.8906 24.9548 23.8906 21.1845L23.8937 21.1782Z" fill="white"/>
<path d="M40.4928 18.3574V19.7662H39.7765C37.9036 19.7662 37.3981 21.3343 37.3981 22.7619V27.3444H35.9624V18.3574H37.2028L37.395 19.7131C37.8136 19.0259 38.4958 18.3574 40.0897 18.3574H40.4928Z" fill="white"/>
<path d="M40.3875 22.8525C40.3875 20.1224 42.1022 18.2544 44.6202 18.2544C47.1381 18.2544 48.7847 19.8569 48.8529 22.5183C48.8529 22.712 48.8343 22.9244 48.8188 23.1337H41.8914V23.2555C41.9441 24.9642 43.0108 26.1637 44.707 26.1637C45.966 26.1637 46.9458 25.4952 47.2435 24.3301H48.6948C48.3444 26.1262 46.8745 27.4475 44.8124 27.4475C42.1364 27.4475 40.3875 25.5983 40.3875 22.8494V22.8525ZM47.3149 21.9342C47.1753 20.3848 46.1241 19.5195 44.6388 19.5195C43.3271 19.5195 42.1209 20.4722 41.9813 21.9342H47.318H47.3149Z" fill="white"/>
<path d="M57.0052 15.0088H58.4378V27.3444H57.1975L57.0052 25.8981C56.4098 26.7259 55.4486 27.4475 53.9446 27.4475C51.4794 27.4475 49.6592 25.7732 49.6592 22.8494C49.6592 20.1005 51.4794 18.2512 53.9446 18.2512C55.4486 18.2512 56.4625 18.8666 57.0052 19.7319V15.0088ZM57.0207 22.8868C57.0207 20.9126 55.83 19.5382 54.0811 19.5382C52.3322 19.5382 51.1259 20.8939 51.1259 22.8525C51.1259 24.8111 52.3167 26.1668 54.0811 26.1668C55.8455 26.1668 57.0207 24.8111 57.0207 22.89V22.8868Z" fill="white"/>
<path d="M66.1154 18.3576H67.5511V27.3446H66.3108L66.1185 26.1451C65.5945 26.8136 64.7355 27.4477 63.2657 27.4477C61.3059 27.4477 59.7493 26.3388 59.7493 23.3587V18.3545H61.1819V23.2713C61.1819 25.1392 62.0222 26.1263 63.5076 26.1263C65.1355 26.1263 66.1154 24.8769 66.1154 22.8495V18.3576Z" fill="white"/>
<path d="M82.3146 22.1653V27.3445H80.882V22.2528C80.882 20.491 80.1129 19.5757 78.764 19.5757C77.2787 19.5757 76.367 20.7034 76.367 22.537V27.3476H74.9313V22.2559C74.9313 20.4941 74.1437 19.5789 72.7793 19.5789C71.3095 19.5789 70.4164 20.8127 70.4164 22.6089V27.3476H68.9807V18.3606H70.2211L70.4133 19.5945C70.8847 18.9416 71.6382 18.2544 73.0212 18.2544C74.2615 18.2544 75.3314 18.8198 75.8368 19.9631C76.3795 18.9947 77.3407 18.2544 78.9346 18.2544C80.7889 18.2544 82.3115 19.329 82.3115 22.1653H82.3146Z" fill="white"/>
<path d="M91.9677 26.0233V27.3447H91.1801C89.9894 27.3447 89.5893 26.8324 89.5707 25.9515C89.0126 26.7636 88.1195 27.4477 86.5784 27.4477C84.6186 27.4477 83.2883 26.4606 83.2883 24.8238C83.2883 23.0277 84.5318 22.0218 86.873 22.0218H89.4963V21.4064C89.4963 20.2444 88.6746 19.5384 87.2761 19.5384C86.0171 19.5384 85.1768 20.1382 85.0031 21.0535H83.5705C83.7814 19.2917 85.1985 18.2515 87.3474 18.2515C89.6204 18.2515 90.932 19.3979 90.932 21.4939V25.4236C90.932 25.8984 91.1057 26.0233 91.5088 26.0233H91.9646H91.9677ZM89.5025 23.2401H86.7396C85.4621 23.2401 84.7457 23.7149 84.7457 24.7363C84.7457 25.6172 85.4993 26.217 86.6869 26.217C88.4699 26.217 89.5025 25.1768 89.5025 23.6805V23.2401Z" fill="white"/>
<path d="M100.52 22.3401V27.3444H99.0844V22.4276C99.0844 20.5596 98.2285 19.5725 96.6719 19.5725C94.9912 19.5725 93.9772 20.822 93.9772 22.8493V27.3412H92.5415V18.3543H93.7819L93.9741 19.5694C94.4982 18.8822 95.4067 18.248 96.9138 18.248C98.9263 18.248 100.517 19.357 100.517 22.337L100.52 22.3401Z" fill="white"/>
<path d="M23.7944 10.4419L20.1881 21.6248C19.8377 21.2531 19.4222 20.8095 18.9725 20.3191C18.8423 20.1754 18.7089 20.0286 18.5818 19.8787C17.5027 18.6354 16.5445 17.1829 16.0422 15.6179C15.7383 14.662 15.6918 13.6562 16.0608 12.7128C16.4143 11.8069 16.991 10.9854 17.6732 10.2982C14.9103 13.0846 10.4265 13.0846 7.66356 10.2982C10.4265 13.0846 10.4265 17.5983 7.66356 20.3816C8.30234 19.7381 9.06516 19.2196 9.8993 18.8635C11.1986 18.3074 12.4451 18.1606 13.7847 18.6854C15.3011 19.2758 16.7058 20.3098 17.8903 21.4124C17.9368 21.4562 17.9833 21.4999 18.0298 21.5405C18.7089 22.1715 19.295 22.715 19.7105 23.1024L18.5756 26.6259C18.5136 26.8196 18.3337 26.9508 18.1322 26.9508H1.53929C1.223 26.9508 0.996629 26.6384 1.09586 26.3354L1.26331 25.82L9.40626 0.570869L9.48378 0.327219C9.58301 0.0210924 9.94582 -0.0976126 10.2032 0.0898116L23.627 9.91396C23.7913 10.0327 23.8595 10.2451 23.7944 10.4419Z" fill="#6045F4"/>
</g>
<defs>
<clipPath id="clip0_436_24388">
<rect width="100.52" height="27.4569" fill="white"/>
</clipPath>
</defs>
</svg>
